<svg width="0" height="0" class="hidden">
  <symbol  xmlns="http://www.w3.org/2000/svg" viewBox="0 0 15 14" id="cart-ico">
    <path fill-rule="evenodd" clip-rule="evenodd" d="M1.16667 0.25C0.798477 0.25 0.5 0.548477 0.5 0.916667C0.5 1.28486 0.798477 1.58333 1.16667 1.58333H2.93794L3.40537 3.91872C3.40821 3.93667 3.41176 3.95438 3.416 3.97182L4.38338 8.80515L4.3835 8.80571C4.46706 9.22572 4.69562 9.60299 5.02921 9.87153C5.36111 10.1387 5.77595 10.2813 6.20183 10.2748H11.8225C12.2484 10.2813 12.6633 10.1387 12.9952 9.87153C13.3289 9.60287 13.5575 9.22538 13.641 8.80515L13.641 8.80515L13.642 8.80016L14.5691 3.93872C14.6063 3.74355 14.5545 3.54195 14.4279 3.38887C14.3012 3.23578 14.1129 3.14716 13.9142 3.14716H4.61072L4.1381 0.785829C4.07574 0.474257 3.80215 0.25 3.4844 0.25H1.16667ZM5.69098 8.54444L4.87759 4.4805H13.1084L12.3328 8.54736C12.31 8.65988 12.2485 8.7609 12.1591 8.83291C12.0691 8.90535 11.9565 8.94383 11.841 8.94162L11.841 8.94149H11.8282H6.19614V8.94137L6.18337 8.94162C6.06787 8.94383 5.95528 8.90535 5.8653 8.83291C5.77531 8.76048 5.71368 8.6587 5.69117 8.5454L5.69098 8.54444ZM4.55739 12.5054C4.55739 11.8175 5.1151 11.2597 5.80307 11.2597C6.49105 11.2597 7.04876 11.8175 7.04876 12.5054C7.04876 13.1934 6.49105 13.7511 5.80307 13.7511C5.1151 13.7511 4.55739 13.1934 4.55739 12.5054ZM10.9307 12.5054C10.9307 11.8175 11.4884 11.2597 12.1764 11.2597C12.8644 11.2597 13.4221 11.8175 13.4221 12.5054C13.4221 13.1934 12.8644 13.7511 12.1764 13.7511C11.4884 13.7511 10.9307 13.1934 10.9307 12.5054Z" fill="currentcolor"></path>
  </symbol>
  <symbol  xmlns="http://www.w3.org/2000/svg" viewBox="0 0 14 14" id="login-ico">
    <path fill-rule="evenodd" clip-rule="evenodd" d="M8 0.666667C8 0.298477 8.29848 0 8.66667 0H11.3333C11.8638 0 12.3725 0.210714 12.7475 0.585786C13.1226 0.960859 13.3333 1.46957 13.3333 2V11.3333C13.3333 11.8638 13.1226 12.3725 12.7475 12.7475C12.3725 13.1226 11.8638 13.3333 11.3333 13.3333H8.66667C8.29848 13.3333 8 13.0349 8 12.6667C8 12.2985 8.29848 12 8.66667 12H11.3333C11.5101 12 11.6797 11.9298 11.8047 11.8047C11.9298 11.6797 12 11.5101 12 11.3333V2C12 1.82319 11.9298 1.65362 11.8047 1.5286C11.6797 1.40357 11.5101 1.33333 11.3333 1.33333H8.66667C8.29848 1.33333 8 1.03486 8 0.666667ZM4.86189 2.86193C5.12224 2.60158 5.54435 2.60158 5.8047 2.86193L9.1338 6.19103C9.15092 6.20785 9.16714 6.22559 9.18238 6.24416C9.21424 6.28296 9.24106 6.32451 9.26283 6.36795C9.30794 6.45781 9.33333 6.55927 9.33333 6.66667C9.33333 6.77529 9.30735 6.87785 9.26127 6.96846C9.24098 7.00841 9.21641 7.04675 9.18756 7.08278C9.17076 7.10378 9.15271 7.12375 9.13354 7.14256L5.8047 10.4714C5.54435 10.7318 5.12224 10.7318 4.86189 10.4714C4.60154 10.2111 4.60154 9.78894 4.86189 9.52859L7.05715 7.33333H0.666667C0.298477 7.33333 0 7.03486 0 6.66667C0 6.29848 0.298477 6 0.666667 6H7.05715L4.86189 3.80474C4.60154 3.54439 4.60154 3.12228 4.86189 2.86193Z" fill="currentcolor" ></path>
  </symbol>
  <symbol  xmlns="http://www.w3.org/2000/svg" viewBox="0 0 14 14" id="search-ico">
    <path fill-rule="evenodd" clip-rule="evenodd" d="M1.66341 6.33008C1.66341 3.75275 3.75275 1.66341 6.33008 1.66341C8.90741 1.66341 10.9967 3.75275 10.9967 6.33008C10.9967 7.58735 10.4995 8.7285 9.69105 9.56763C9.66821 9.58518 9.64624 9.60443 9.62532 9.62535C9.6044 9.64627 9.58516 9.66823 9.5676 9.69107C8.72847 10.4996 7.58734 10.9967 6.33008 10.9967C3.75275 10.9967 1.66341 8.90741 1.66341 6.33008ZM10.0752 11.018C9.04874 11.8391 7.74675 12.3301 6.33008 12.3301C3.01637 12.3301 0.330078 9.64379 0.330078 6.33008C0.330078 3.01637 3.01637 0.330078 6.33008 0.330078C9.64379 0.330078 12.3301 3.01637 12.3301 6.33008C12.3301 7.74676 11.8391 9.04877 11.018 10.0752L13.4681 12.5253C13.7285 12.7857 13.7285 13.2078 13.4681 13.4682C13.2078 13.7285 12.7857 13.7285 12.5253 13.4682L10.0752 11.018Z" fill="currentcolor" ></path>
  </symbol>
  <symbol  xmlns="http://www.w3.org/2000/svg" viewBox="0 0 14 14" id="heart-ico">
    <path d="M12.8911 1.99447C12.5506 1.65381 12.1463 1.38357 11.7014 1.19919C11.2564 1.01482 10.7795 0.919922 10.2978 0.919922C9.81614 0.919922 9.3392 1.01482 8.89423 1.19919C8.44926 1.38357 8.04497 1.65381 7.70447 1.99447L6.9978 2.70114L6.29113 1.99447C5.60334 1.30668 4.67049 0.920278 3.6978 0.920278C2.72511 0.920278 1.79226 1.30668 1.10447 1.99447C0.416673 2.68227 0.0302734 3.61512 0.0302734 4.58781C0.0302734 5.56049 0.416673 6.49334 1.10447 7.18114L1.81113 7.88781L6.9978 13.0745L12.1845 7.88781L12.8911 7.18114C13.2318 6.84064 13.502 6.43635 13.6864 5.99138C13.8708 5.5464 13.9657 5.06946 13.9657 4.58781C13.9657 4.10615 13.8708 3.62921 13.6864 3.18424C13.502 2.73926 13.2318 2.33498 12.8911 1.99447Z" fill="currentcolor"></path>
  </symbol>
  <symbol xmlns="http://www.w3.org/2000/svg" viewBox="0 0 16 16" id="telegram-ico">
    <path fill-rule="evenodd" clip-rule="evenodd" d="M16 8C16 12.418 12.418 16 8 16C3.582 16 0 12.418 0 8C0 3.582 3.582 0 8 0C12.418 0 16 3.582 16 8ZM8.28667 5.906C7.50867 6.22933 5.95333 6.89933 3.62133 7.91533C3.24267 8.066 3.044 8.21333 3.026 8.35733C2.99533 8.60133 3.30067 8.69733 3.71533 8.82733C3.772 8.84533 3.83067 8.86333 3.89067 8.88333C4.29933 9.016 4.84867 9.17133 5.134 9.17733C5.39333 9.18267 5.68267 9.076 6.002 8.85733C8.18067 7.386 9.30533 6.64267 9.376 6.62667C9.426 6.61533 9.49533 6.60067 9.542 6.64267C9.58867 6.684 9.584 6.76267 9.57933 6.784C9.54867 6.91267 8.35267 8.02533 7.73267 8.60133C7.53933 8.78067 7.40267 8.908 7.37467 8.93733C7.312 9.002 7.248 9.064 7.18667 9.12333C6.80667 9.48867 6.52267 9.76333 7.20267 10.2113C7.52933 10.4267 7.79067 10.6047 8.05133 10.782C8.336 10.976 8.62 11.1693 8.988 11.4107C9.08133 11.472 9.17067 11.5353 9.258 11.5973C9.58933 11.834 9.88733 12.046 10.2553 12.0127C10.4687 11.9927 10.69 11.792 10.802 11.1927C11.0667 9.77533 11.588 6.706 11.7087 5.44067C11.716 5.33561 11.7115 5.23006 11.6953 5.126C11.6856 5.04195 11.6447 4.96462 11.5807 4.90933C11.4853 4.83133 11.3373 4.81467 11.2707 4.816C10.97 4.82133 10.5087 4.982 8.28667 5.906Z" ></path>
  </symbol>
  <symbol  xmlns="http://www.w3.org/2000/svg" viewBox="0 0 16 16" id="vk-ico">
    <path fill-rule="evenodd" clip-rule="evenodd" d="M16 8C16 12.4183 12.4183 16 8 16C3.58172 16 0 12.4183 0 8C0 3.58172 3.58172 0 8 0C12.4183 0 16 3.58172 16 8ZM8.39228 9.98325H7.91409C7.91409 9.98325 6.85898 10.0389 5.92986 9.19111C4.91657 8.26636 4.02166 6.43135 4.02166 6.43135C4.02166 6.43135 3.97008 6.31103 4.02612 6.25287C4.08911 6.18748 4.2607 6.18329 4.2607 6.18329L5.40378 6.17672C5.40378 6.17672 5.51151 6.19252 5.58862 6.24211C5.65216 6.28304 5.68778 6.35957 5.68778 6.35957C5.68778 6.35957 5.87252 6.76907 6.11721 7.13954C6.59475 7.86277 6.81717 8.02097 6.97932 7.94349C7.21553 7.8305 7.14472 6.92108 7.14472 6.92108C7.14472 6.92108 7.14907 6.59097 7.0258 6.44401C6.93034 6.33007 6.75027 6.29685 6.67077 6.28752C6.60647 6.28 6.71204 6.14912 6.84888 6.09038C7.05458 6.00205 7.41787 5.99701 7.84708 6.00091C8.18147 6.00386 8.2777 6.02214 8.40846 6.04984C8.71183 6.11404 8.70237 6.31976 8.68196 6.76362C8.67586 6.89625 8.66879 7.05014 8.66879 7.22787C8.66879 7.26786 8.66746 7.31048 8.66609 7.35433C8.659 7.58166 8.65089 7.84192 8.82159 7.93863C8.90913 7.98813 9.1233 7.94606 9.65894 7.14887C9.91286 6.77107 10.1032 6.32683 10.1032 6.32683C10.1032 6.32683 10.1448 6.24763 10.2095 6.21365C10.2756 6.179 10.3648 6.18966 10.3648 6.18966L11.5677 6.1831C11.5677 6.1831 11.9291 6.14531 11.9877 6.28828C12.049 6.43839 11.8526 6.78887 11.3611 7.36294C10.8976 7.90445 10.6707 8.10579 10.6886 8.2824C10.7018 8.41323 10.8493 8.53049 11.1343 8.76238C11.7265 9.24409 11.8843 9.49702 11.9218 9.55713C11.9248 9.56199 11.9271 9.56559 11.9287 9.56795C12.1937 9.95308 11.6348 9.98325 11.6348 9.98325L10.5665 9.99629C10.5665 9.99629 10.3369 10.0362 10.0347 9.85427C9.87671 9.75923 9.72223 9.60401 9.57505 9.45612C9.35005 9.23004 9.1421 9.02109 8.96463 9.07041C8.66683 9.15322 8.67617 9.71559 8.67617 9.71559C8.67617 9.71559 8.67834 9.83571 8.61046 9.89968C8.53672 9.96936 8.39228 9.98325 8.39228 9.98325Z" ></path>
  </symbol>
  <symbol  xmlns="http://www.w3.org/2000/svg" viewBox="0 0 16 16" id="youtube-ico">
    <path d="M9.33583 7.86083L7.46417 6.9875C7.30083 6.91167 7.16667 6.99667 7.16667 7.1775V8.8225C7.16667 9.00333 7.30083 9.08833 7.46417 9.0125L9.335 8.13917C9.49917 8.0625 9.49917 7.9375 9.33583 7.86083ZM8 0C3.58167 0 0 3.58167 0 8C0 12.4183 3.58167 16 8 16C12.4183 16 16 12.4183 16 8C16 3.58167 12.4183 0 8 0ZM8 11.25C3.905 11.25 3.83333 10.8808 3.83333 8C3.83333 5.11917 3.905 4.75 8 4.75C12.095 4.75 12.1667 5.11917 12.1667 8C12.1667 10.8808 12.095 11.25 8 11.25Z" ></path>
  </symbol>
   <symbol xmlns="http://www.w3.org/2000/svg" viewBox="0 0 7 12" id="arrow">
    <path fill-rule="evenodd" clip-rule="evenodd" d="M1.1352 0.864757C0.875505 0.605058 0.45445 0.605058 0.194751 0.864757C-0.0649472 1.12446 -0.0649472 1.54551 0.194751 1.80521L4.39603 6.00649L0.194713 10.2078C-0.0649858 10.4675 -0.0649858 10.8886 0.194713 11.1483C0.454412 11.408 0.875466 11.408 1.13516 11.1483L5.80388 6.47955C5.80483 6.47861 5.80577 6.47767 5.80672 6.47672C6.06642 6.21702 6.06642 5.79597 5.80672 5.53627L1.1352 0.864757Z" ></path>
  </symbol>
 <symbol  xmlns="http://www.w3.org/2000/svg" viewBox="0 0 15 14" id="cart-card-price">
    <path fill-rule="evenodd" clip-rule="evenodd" d="M1.16667 0.25C0.798477 0.25 0.5 0.548477 0.5 0.916667C0.5 1.28486 0.798477 1.58333 1.16667 1.58333H2.93794L3.40537 3.91872C3.40821 3.93667 3.41176 3.95438 3.416 3.97182L4.38338 8.80515L4.3835 8.80571C4.46706 9.22572 4.69562 9.60299 5.02921 9.87153C5.36111 10.1387 5.77595 10.2813 6.20183 10.2748H11.8225C12.2484 10.2813 12.6633 10.1387 12.9952 9.87153C13.3289 9.60287 13.5575 9.22538 13.641 8.80515L13.641 8.80515L13.642 8.80016L14.5691 3.93872C14.6063 3.74355 14.5545 3.54195 14.4279 3.38887C14.3012 3.23578 14.1129 3.14716 13.9142 3.14716H4.61072L4.1381 0.785829C4.07574 0.474257 3.80215 0.25 3.4844 0.25H1.16667ZM5.69098 8.54444L4.87759 4.4805H13.1084L12.3328 8.54736C12.31 8.65988 12.2485 8.7609 12.1591 8.83291C12.0691 8.90535 11.9565 8.94383 11.841 8.94162L11.841 8.94149H11.8282H6.19614V8.94137L6.18337 8.94162C6.06787 8.94383 5.95528 8.90535 5.8653 8.83291C5.77531 8.76048 5.71368 8.6587 5.69117 8.5454L5.69098 8.54444ZM4.55739 12.5054C4.55739 11.8175 5.1151 11.2597 5.80307 11.2597C6.49105 11.2597 7.04876 11.8175 7.04876 12.5054C7.04876 13.1934 6.49105 13.7511 5.80307 13.7511C5.1151 13.7511 4.55739 13.1934 4.55739 12.5054ZM10.9307 12.5054C10.9307 11.8175 11.4884 11.2597 12.1764 11.2597C12.8644 11.2597 13.4221 11.8175 13.4221 12.5054C13.4221 13.1934 12.8644 13.7511 12.1764 13.7511C11.4884 13.7511 10.9307 13.1934 10.9307 12.5054Z" ></path>
  </symbol>
    <symbol fill="none" xmlns="http://www.w3.org/2000/svg" viewBox="0 0 7 12" id="arrow-pagination">
    <path fill-rule="evenodd" clip-rule="evenodd" d="M1.13526 0.864696C0.875566 0.604997 0.454511 0.604997 0.194813 0.864696C-0.0648862 1.12439 -0.0648862 1.54545 0.194813 1.80515L4.39609 6.00643L0.194774 10.2077C-0.0649247 10.4674 -0.0649247 10.8885 0.194774 11.1482C0.454473 11.4079 0.875527 11.4079 1.13523 11.1482L5.80394 6.47949C5.80489 6.47855 5.80583 6.47761 5.80678 6.47666C6.06648 6.21696 6.06648 5.79591 5.80678 5.53621L1.13526 0.864696Z" fill="#2D3440"></path>
  </symbol>
    <symbol  xmlns="http://www.w3.org/2000/svg" viewBox="0 0 14 14" id="close-button">
    <path fill-rule="evenodd" clip-rule="evenodd" d="M12.8858 2.05482C13.1461 1.79447 13.1461 1.37236 12.8858 1.11201C12.6254 0.851661 12.2033 0.851661 11.943 1.11201L6.99877 6.0562L2.05458 1.11201C1.79423 0.851661 1.37212 0.851661 1.11177 1.11201C0.851417 1.37236 0.851417 1.79447 1.11177 2.05482L6.05596 6.99901L1.11177 11.9432C0.851417 12.2036 0.851417 12.6257 1.11177 12.886C1.37212 13.1464 1.79423 13.1464 2.05458 12.886L6.99877 7.94182L11.943 12.886C12.2033 13.1464 12.6254 13.1464 12.8858 12.886C13.1461 12.6257 13.1461 12.2036 12.8858 11.9432L7.94158 6.99901L12.8858 2.05482Z" ></path>
  </symbol>
</svg>
